<svg width="48" height="48" viewBox="10 0 48 48" fill="none" xmlns="http://www.w3.org/2000/svg">
<path d="M47.9571 13.0735C46.3697 4.94717 38.6262 -0.327346 30.6614 1.29229C24.8359 2.47692 20.2809 7.12144 19.1162 13.0644C13.469 13.7284 9.4181 18.9374 10.0686 24.6996C10.6674 30.0027 15.0697 34.0037 20.3017 34H27.654C28.4662 34 29.1245 33.3283 29.1245 32.4996C29.1245 31.671 28.4662 30.9993 27.654 30.9993H20.3017C16.2408 30.9748 12.9688 27.5965 12.9924 23.4535C13.0164 19.3106 16.3276 15.9718 20.3885 15.996C21.1379 15.9963 21.7676 15.4208 21.85 14.661C22.5966 8.07595 28.4339 3.35534 34.888 4.11705C40.314 4.75766 44.5944 9.12449 45.2219 14.661C45.3452 15.4344 46.0022 16.0011 46.7702 15.996C50.8312 15.996 54.1229 19.3545 54.1229 23.4978C54.1229 27.6407 50.8312 30.9993 46.7702 30.9993H39.4179C38.6057 30.9993 37.9474 31.671 37.9474 32.4996C37.9474 33.3283 38.6057 34 39.4179 34H46.7706C52.4552 33.9638 57.0349 29.2329 56.9998 23.4327C56.9675 18.1508 53.0956 13.7152 47.9571 13.0735Z" fill="#8E8E8E"/>
<path d="M39.3461 28.1999C39.9226 28.7968 40.8732 28.8133 41.4698 28.2369C42.0664 27.6608 42.0828 26.7101 41.5068 26.1136C41.4947 26.1008 41.4823 26.0887 41.4698 26.0766L35.1007 19.706C34.5151 19.1186 33.564 19.1175 32.9766 19.703C32.9759 19.7041 32.9748 19.7049 32.9741 19.706L26.6049 26.0766C26.0084 26.6526 25.9919 27.6033 26.5679 28.1999C27.1444 28.7964 28.095 28.8129 28.6916 28.2369C28.7041 28.2248 28.7165 28.2123 28.7286 28.1999L32.5357 24.3913V43.2929C32.5357 44.1224 33.2081 44.7947 34.0376 44.7947C34.8667 44.7947 35.539 44.1224 35.539 43.2929V24.3913L39.3461 28.1999Z" fill="#8E8E8E"/>
</svg>
