<svg width="48" height="48" viewBox="0 0 48 48" fill="none" xmlns="http://www.w3.org/2000/svg">
  <g clip-path="url(#clip0)">
    <path d="M36.9998 18.9993H8.99909C7.34502 18.9993 5.99902 20.3453 5.99902 21.9993V23.9994C5.99902 31.1355 9.94112 37.6077 16.2852 40.8898C16.7753 41.1418 17.3792 40.9517 17.6333 40.4597C17.8853 39.9697 17.6953 39.3657 17.2033 39.1117C11.5271 36.1756 7.99904 30.3855 7.99904 23.9993V21.9992C7.99904 21.4472 8.44708 20.9992 8.99909 20.9992H36.9998C37.5518 20.9992 37.9998 21.4472 37.9998 21.9992V23.9993C37.9998 30.3854 34.4718 36.1755 28.7936 39.1096C28.3016 39.3636 28.1116 39.9676 28.3636 40.4577C28.5416 40.8016 28.8916 40.9996 29.2536 40.9996C29.4096 40.9996 29.5656 40.9636 29.7116 40.8876C36.0578 37.6075 39.9998 31.1374 39.9998 23.9992V21.9992C39.9998 20.3453 38.6538 18.9993 36.9998 18.9993Z" fill="#8E8E8E"/>
    <path d="M45.9259 39.6157C45.7699 39.2417 45.4059 38.9977 45.0019 38.9977H1.00092C0.596942 38.9977 0.232903 39.2417 0.0768991 39.6157C-0.0791046 39.9897 0.00686617 40.4197 0.292904 40.7058L2.53499 42.9498C3.85905 44.2718 5.61503 44.9999 7.4851 44.9999H38.5138C40.3839 44.9999 42.1419 44.2719 43.4679 42.9498L45.71 40.7058C45.996 40.4197 46.0819 39.9897 45.9259 39.6157ZM42.0519 41.5357C41.1079 42.4797 39.8499 42.9998 38.5159 42.9998H7.4851C6.1511 42.9998 4.89304 42.4797 3.94905 41.5357L3.41307 40.9998H42.5879L42.0519 41.5357Z" fill="#8E8E8E"/>
    <path d="M46.0663 23.7213C43.3722 21.9892 39.0681 23.8693 38.5861 24.0873C38.084 24.3173 37.86 24.9093 38.09 25.4134C38.32 25.9174 38.9101 26.1394 39.416 25.9094C40.3801 25.4714 43.4721 24.4334 44.9842 25.4074C45.6662 25.8454 46.0002 26.6954 46.0002 27.9994C46.0002 32.0035 37.924 34.4236 34.8059 35.0196L34.0979 35.1595C33.5559 35.2656 33.2038 35.7915 33.3099 36.3336C33.4039 36.8096 33.8218 37.1396 34.2899 37.1396C34.3539 37.1396 34.4178 37.1336 34.4838 37.1196L35.1858 36.9816C35.7098 36.8816 48.0002 34.4716 48.0002 27.9994C48.0003 25.9874 47.3483 24.5493 46.0663 23.7213Z" fill="#8E8E8E"/>
    <path d="M30.786 10.6231C32.412 8.59098 32.412 5.40893 30.786 3.37686C30.4399 2.94485 29.8139 2.87284 29.38 3.22085C28.9479 3.56689 28.8779 4.19484 29.224 4.62685C30.254 5.91285 30.254 8.08697 29.222 9.377C27.594 11.4091 27.594 14.5911 29.222 16.6232C29.42 16.8712 29.71 16.9992 30.004 16.9992C30.2219 16.9992 30.444 16.9272 30.628 16.7792C31.06 16.4332 31.13 15.8031 30.784 15.3732C29.752 14.0871 29.752 11.9131 30.786 10.6231Z" fill="#8E8E8E"/>
    <path d="M24.7776 10.6231C26.4056 8.591 26.4056 5.40896 24.7776 3.37688C24.4337 2.94487 23.8037 2.87484 23.3716 3.22088C22.9396 3.56692 22.8696 4.19693 23.2156 4.62688C24.2477 5.91288 24.2477 8.08699 23.2137 9.37702C21.5876 11.4091 21.5876 14.5911 23.2137 16.6232C23.4117 16.8712 23.7016 16.9993 23.9957 16.9993C24.2136 16.9993 24.4337 16.9273 24.6197 16.7792C25.0517 16.4332 25.1217 15.8052 24.7757 15.3732C23.7456 14.0871 23.7456 11.9131 24.7776 10.6231Z" fill="#8E8E8E"/>
    <path d="M18.786 10.625C20.412 8.59293 20.412 5.41089 18.786 3.37881C18.442 2.9468 17.8139 2.8748 17.38 3.22281C16.9499 3.56678 16.88 4.1968 17.224 4.62684C18.254 5.91284 18.254 8.08695 17.222 9.37698C15.594 11.4091 15.594 14.5911 17.222 16.6232C17.42 16.8712 17.71 16.9992 18.004 16.9992C18.2219 16.9992 18.444 16.9272 18.628 16.7812C19.06 16.4352 19.13 15.8052 18.784 15.3752C17.752 14.0871 17.752 11.915 18.786 10.625Z" fill="#8E8E8E"/>
  </g>
  <defs>
    <clipPath id="clip0">
      <rect width="48" height="48" fill="white"/>
    </clipPath>
  </defs>
</svg>
