<svg width="47" height="48" viewBox="0 0 47 48" fill="none" xmlns="http://www.w3.org/2000/svg">
  <path d="M45.4392 10.9509H38.7809C39.8679 9.77244 40.5335 8.1995 40.5335 6.47365C40.5335 6.47365 40.5321 6.21022 40.5296 6.13503C40.4577 4.00521 39.2962 2.10583 37.4228 1.05377C35.5115 -0.0192964 33.2346 -0.0190152 31.3322 1.0548L28.304 2.76377C26.4076 3.83412 24.9234 5.44737 24 7.34431C23.0767 5.44737 21.5925 3.83412 19.6962 2.76387L16.668 1.05471C14.7656 -0.0190152 12.4886 -0.0193901 10.5774 1.05367C8.70395 2.10565 7.54248 4.00512 7.47058 6.13494C7.46805 6.21012 7.46673 6.47356 7.46673 6.47356C7.46673 8.19941 8.13227 9.77235 9.2193 10.9509H2.56088C1.14881 10.9509 0 12.0998 0 13.5119V19.5901C0 21.0021 1.14881 22.1509 2.56088 22.1509H3.73332V45.1901C3.73332 46.6022 4.88213 47.751 6.2942 47.751H41.7058C43.1179 47.751 44.2667 46.6022 44.2667 45.1901V22.1508H45.4391C46.8512 22.1508 48 21.002 48 19.59V13.5118C48.0001 12.0998 46.8513 10.9509 45.4392 10.9509ZM29.3525 4.62162L32.3807 2.91265C33.6284 2.2084 35.1229 2.20896 36.3784 2.91396C37.5962 3.59768 38.351 4.82871 38.3974 6.20712C38.3991 6.25831 38.4 6.47365 38.4 6.47365C38.4 8.94247 36.3915 10.951 33.9227 10.951H25.1277C25.4475 8.3121 27.0052 5.94631 29.3525 4.62162ZM9.60255 6.20703C9.64914 4.82871 10.4039 3.59768 11.6216 2.91387C12.25 2.56108 12.9377 2.38483 13.6247 2.38483C14.3107 2.38483 14.9959 2.56071 15.6192 2.91265L18.6474 4.62162C20.9947 5.94631 22.5525 8.3121 22.8721 10.9508H14.0772C11.6084 10.9508 9.59993 8.94229 9.59993 6.47356C9.60002 6.47366 9.60086 6.25822 9.60255 6.20703ZM19.2001 25.3958H14.8087C14.2196 25.3958 13.742 25.8735 13.742 26.4625C13.742 27.0515 14.2196 27.5292 14.8087 27.5292H19.2001V45.6176H6.2942C6.05842 45.6176 5.8667 45.4259 5.8667 45.1902V22.1508H19.2001V25.3958ZM19.2001 20.0177H2.56088C2.3251 20.0176 2.13338 19.8258 2.13338 19.5901V13.5119C2.13338 13.2761 2.32519 13.0844 2.56088 13.0844H19.2001V20.0177ZM26.6665 45.6175H21.3335V13.0842H26.6665V45.6175ZM42.1334 45.1901C42.1334 45.4259 41.9416 45.6176 41.7059 45.6176H28.7999V27.5291H32.8644C33.4535 27.5291 33.9311 27.0514 33.9311 26.4624C33.9311 25.8734 33.4535 25.3957 32.8644 25.3957H28.7999V22.1508H42.1335V45.1901H42.1334ZM45.8667 19.5901C45.8667 19.8258 45.6749 20.0177 45.4392 20.0177H28.7999V13.0843H45.4393C45.675 13.0843 45.8668 13.2761 45.8668 13.5119V19.5901H45.8667Z" fill="#8E8E8E"/>
</svg>
